# xmcd
#
# Track frame offsets:
# 150
# 18546
# 38119
# 59866
# 72537
# 93829
# 111493
# 133069
# 143797
# 163228
# 180866
# 191583
#
# Disc length: 2824 seconds
#
#
# Revision: 0
# Processed by: cddbd v1.5.1PL2 Copyright (c) Steve Scherf et al.
# Submitted via: FreeRIP 2.944 
#
DISCID=b30b060c
DTITLE=Jeremy Spencer - Precious little
DYEAR=2006
DGENRE=Blues
TTITLE0=Bitter lemon
TTITLE1=Psychic waste
TTITLE2=It hurts me too
TTITLE3=Please don`t stop
TTITLE4=Serena Serena
TTITLE5=Dr.J
TTITLE6=Bleeding heart
TTITLE7=Many sparrows
TTITLE8=Trouble and Woe
TTITLE9=Maria De Santiago
TTITLE10=Take and give
TTITLE11=Precious little
EXTD=
EXTT0=
EXTT1=
EXTT2=
EXTT3=
EXTT4=
EXTT5=
EXTT6=
EXTT7=
EXTT8=
EXTT9=
EXTT10=
EXTT11=
PLAYORDER=
